<?xml version="1.0" encoding="utf-8"?>

<!DOCTYPE svg PUBLIC "-//W3C//DTD SVG 1.1//EN" "http://www.w3.org/Graphics/SVG/1.1/DTD/svg11.dtd">
<!-- Uploaded to: SVG Repo, www.svgrepo.com, Generator: SVG Repo Mixer Tools -->
<svg height="800px" width="800px" version="1.1" id="_x32_" xmlns="http://www.w3.org/2000/svg" xmlns:xlink="http://www.w3.org/1999/xlink" 
	 viewBox="0 0 512 512"  xml:space="preserve">
<style type="text/css">
	.st0{fill:#000000;}
</style>
<g>
	<path class="st0" d="M457.637,431.41c-7.751,3.404-16.051,6.017-31.013,6.066c-9.961,0-17.002-1.234-22.85-2.984
		c-8.727-2.613-15.204-6.792-24.504-10.977c-9.251-4.162-20.963-7.598-38.022-7.55c-11.369-0.008-20.322,1.452-27.819,3.735
		c-11.268,3.444-18.794,8.331-26.492,11.711c-7.747,3.404-16.043,6.017-30.996,6.066c-9.95,0-16.995-1.234-22.842-2.984
		c-8.724-2.613-15.196-6.792-24.492-10.977c-9.243-4.162-20.963-7.598-38.005-7.55c-11.373-0.008-20.322,1.452-27.819,3.735
		c-11.272,3.444-18.794,8.331-26.492,11.711c-7.752,3.404-16.047,6.017-30.997,6.066c-9.953,0-16.987-1.234-22.826-2.984
		c-8.707-2.613-15.188-6.792-24.476-10.977c-9.247-4.162-20.947-7.598-37.99-7.55v17.212c9.949,0.008,16.994,1.226,22.826,2.992
		c8.727,2.605,15.196,6.784,24.483,10.969c9.236,4.17,20.948,7.606,37.982,7.55c11.381,0.016,20.338-1.46,27.818-3.727
		c11.28-3.444,18.794-8.348,26.5-11.719c7.76-3.404,16.047-6.017,30.989-6.066c9.961,0.008,17.002,1.226,22.842,2.992
		c8.727,2.605,15.204,6.784,24.5,10.978c9.247,4.162,20.955,7.598,37.998,7.542c11.38,0.016,20.342-1.46,27.822-3.727
		c11.276-3.444,18.793-8.348,26.5-11.719c7.756-3.404,16.043-6.017,30.985-6.066c9.969,0.008,17.011,1.226,22.867,2.992
		c8.718,2.605,15.212,6.792,24.504,10.978c9.243,4.162,20.962,7.598,38.005,7.542c11.381,0.016,20.342-1.46,27.835-3.727
		c11.284-3.444,18.802-8.339,26.521-11.719c7.759-3.404,16.05-6.017,31.02-6.066v-17.212c-11.389-0.008-20.349,1.452-27.835,3.735
		C472.873,423.143,465.356,428.031,457.637,431.41z"/>
	<path class="st0" d="M457.637,311.859c-7.751,3.404-16.051,6.017-31.013,6.066c-9.961,0-17.002-1.234-22.85-2.984
		c-8.727-2.613-15.204-6.792-24.504-10.978c-9.251-4.162-20.963-7.599-38.022-7.55c-11.369-0.008-20.322,1.452-27.819,3.735
		c-11.268,3.444-18.794,8.331-26.492,11.711c-7.747,3.404-16.043,6.017-30.996,6.066c-9.95,0-16.995-1.234-22.842-2.984
		c-8.724-2.613-15.196-6.792-24.492-10.978c-9.243-4.162-20.963-7.599-38.005-7.55c-11.373-0.008-20.322,1.452-27.819,3.735
		c-11.272,3.444-18.794,8.331-26.492,11.711c-7.752,3.404-16.047,6.017-30.997,6.066c-9.953,0-16.987-1.234-22.826-2.984
		c-8.707-2.613-15.188-6.792-24.476-10.978c-9.247-4.162-20.947-7.599-37.99-7.55v17.212c9.949,0.008,16.994,1.226,22.826,2.992
		c8.727,2.605,15.196,6.784,24.483,10.97c9.236,4.17,20.948,7.606,37.982,7.55c11.381,0.016,20.338-1.46,27.818-3.726
		c11.28-3.444,18.794-8.348,26.5-11.719c7.76-3.404,16.047-6.018,30.989-6.066c9.961,0.008,17.002,1.226,22.842,2.992
		c8.727,2.605,15.204,6.784,24.5,10.978c9.247,4.162,20.955,7.598,37.998,7.542c11.38,0.016,20.342-1.46,27.822-3.726
		c11.276-3.444,18.793-8.348,26.5-11.719c7.756-3.404,16.043-6.018,30.985-6.066c9.969,0.008,17.011,1.226,22.867,2.992
		c8.718,2.605,15.212,6.792,24.504,10.978c9.243,4.162,20.962,7.598,38.005,7.542c11.381,0.016,20.342-1.46,27.835-3.726
		c11.284-3.444,18.802-8.34,26.521-11.719c7.759-3.404,16.05-6.018,31.02-6.066v-17.212c-11.389-0.008-20.349,1.452-27.835,3.735
		C472.873,303.592,465.356,308.479,457.637,311.859z"/>
	<path class="st0" d="M457.637,192.308c-7.751,3.404-16.051,6.017-31.013,6.066c-9.961,0-17.002-1.234-22.85-2.984
		c-8.727-2.613-15.204-6.792-24.504-10.978c-9.251-4.163-20.963-7.598-38.022-7.55c-11.369-0.008-20.322,1.452-27.819,3.734
		c-11.268,3.444-18.794,8.332-26.492,11.712c-7.747,3.404-16.043,6.017-30.996,6.066c-9.95,0-16.995-1.234-22.842-2.984
		c-8.724-2.613-15.196-6.792-24.492-10.978c-9.243-4.163-20.963-7.598-38.005-7.55c-11.373-0.008-20.322,1.452-27.819,3.734
		c-11.272,3.444-18.794,8.332-26.492,11.712c-7.752,3.404-16.047,6.017-30.997,6.066c-9.953,0-16.987-1.234-22.826-2.984
		c-8.707-2.613-15.188-6.792-24.476-10.978c-9.247-4.163-20.947-7.598-37.99-7.55v17.213c9.949,0.008,16.994,1.226,22.826,2.992
		c8.727,2.605,15.196,6.783,24.483,10.969c9.236,4.17,20.948,7.606,37.982,7.55c11.381,0.016,20.338-1.46,27.818-3.727
		c11.28-3.444,18.794-8.348,26.5-11.719c7.76-3.404,16.047-6.018,30.989-6.066c9.961,0.008,17.002,1.226,22.842,2.992
		c8.727,2.605,15.204,6.783,24.5,10.978c9.247,4.162,20.955,7.598,37.998,7.542c11.38,0.016,20.342-1.46,27.822-3.727
		c11.276-3.444,18.793-8.348,26.5-11.719c7.756-3.404,16.043-6.018,30.985-6.066c9.969,0.008,17.011,1.226,22.867,2.992
		c8.718,2.605,15.212,6.791,24.504,10.978c9.243,4.162,20.962,7.598,38.005,7.542c11.381,0.016,20.342-1.46,27.835-3.727
		c11.284-3.444,18.802-8.34,26.521-11.719c7.759-3.404,16.05-6.018,31.02-6.066v-17.213c-11.389-0.008-20.349,1.452-27.835,3.734
		C472.873,184.041,465.356,188.929,457.637,192.308z"/>
	<path class="st0" d="M484.165,61.045c-11.292,3.444-18.809,8.332-26.528,11.712c-7.751,3.404-16.051,6.017-31.013,6.066
		c-9.961,0-17.002-1.234-22.85-2.985c-8.727-2.613-15.204-6.791-24.504-10.978c-9.251-4.162-20.963-7.598-38.022-7.549
		c-11.369-0.008-20.322,1.452-27.819,3.734c-11.268,3.444-18.794,8.332-26.492,11.712c-7.747,3.404-16.043,6.017-30.996,6.066
		c-9.95,0-16.995-1.234-22.842-2.985c-8.724-2.613-15.196-6.791-24.492-10.978c-9.243-4.162-20.963-7.598-38.005-7.549
		c-11.373-0.008-20.322,1.452-27.819,3.734c-11.272,3.444-18.794,8.332-26.492,11.712c-7.752,3.404-16.047,6.017-30.997,6.066
		c-9.953,0-16.987-1.234-22.826-2.985c-8.707-2.613-15.188-6.791-24.476-10.978C28.743,60.699,17.043,57.263,0,57.311v17.212
		c9.949,0.008,16.994,1.226,22.826,2.992c8.727,2.605,15.196,6.784,24.483,10.969c9.236,4.17,20.948,7.606,37.982,7.55
		c11.381,0.016,20.338-1.46,27.818-3.727c11.28-3.444,18.794-8.348,26.5-11.72c7.76-3.404,16.047-6.017,30.989-6.065
		c9.961,0.008,17.002,1.226,22.842,2.992c8.727,2.605,15.204,6.784,24.5,10.978c9.247,4.162,20.955,7.598,37.998,7.542
		c11.38,0.016,20.342-1.46,27.822-3.727c11.276-3.444,18.793-8.348,26.5-11.72c7.756-3.404,16.043-6.017,30.985-6.065
		c9.969,0.008,17.011,1.226,22.867,2.992c8.718,2.605,15.212,6.791,24.504,10.978c9.243,4.162,20.962,7.598,38.005,7.542
		c11.381,0.016,20.342-1.46,27.835-3.727c11.284-3.444,18.802-8.34,26.521-11.72c7.759-3.404,16.05-6.017,31.02-6.065V57.311
		C500.611,57.303,491.651,58.763,484.165,61.045z"/>
</g>
</svg>